<svg width="32" height="32" viewBox="0 0 32 32" fill="none" xmlns="http://www.w3.org/2000/svg">
<path d="M16 0C7.125 0 0 7.1875 0 16C0 24.875 7.125 32 16 32C24.8125 32 32 24.875 32 16C32 7.1875 24.8125 0 16 0ZM18.875 21H13.0625L10.1875 16L13.0625 11H18.875L21.75 16.0625L18.875 21ZM20 11H30.125C30.625 12.625 31 14.25 31 16C31 19.375 29.875 22.4375 28 24.9375L20 11ZM29.6875 10H13.6875L18.6875 1.3125C23.625 2.1875 27.75 5.5625 29.6875 10ZM16 1C16.5625 1 17.0625 1.0625 17.625 1.125L9.625 15L4.5625 6.3125C7.3125 3.0625 11.4375 1 16 1ZM3.9375 7.125L11.9375 21H1.875C1.3125 19.4375 1 17.8125 1 16C1 12.6875 2.0625 9.625 3.9375 7.125ZM2.25 22H18.25L13.25 30.75C8.3125 29.875 4.1875 26.5 2.25 22ZM16 31C15.375 31 14.875 31 14.3125 30.9375L22.3125 17.0625L27.375 25.75C24.625 29 20.5 31 16 31Z" fill="#A0DDE6"/>
</svg>
