<svg width="173" height="101" viewBox="0 0 173 101" fill="none" xmlns="http://www.w3.org/2000/svg">
<g filter="url(#filter0_d_354_939)">
<rect x="34" y="30" width="105" height="33" rx="8" fill="#FDFDFD"/>
</g>
<rect x="45" y="39" width="16" height="16" rx="4" fill="#D3892E"/>
<path d="M71.112 46.692C71.416 46.74 71.692 46.864 71.94 47.064C72.196 47.264 72.396 47.512 72.54 47.808C72.692 48.104 72.768 48.42 72.768 48.756C72.768 49.18 72.66 49.564 72.444 49.908C72.228 50.244 71.912 50.512 71.496 50.712C71.088 50.904 70.604 51 70.044 51H66.924V42.636H69.924C70.492 42.636 70.976 42.732 71.376 42.924C71.776 43.108 72.076 43.36 72.276 43.68C72.476 44 72.576 44.36 72.576 44.76C72.576 45.256 72.44 45.668 72.168 45.996C71.904 46.316 71.552 46.548 71.112 46.692ZM68.016 46.248H69.852C70.364 46.248 70.76 46.128 71.04 45.888C71.32 45.648 71.46 45.316 71.46 44.892C71.46 44.468 71.32 44.136 71.04 43.896C70.76 43.656 70.356 43.536 69.828 43.536H68.016V46.248ZM69.948 50.1C70.492 50.1 70.916 49.972 71.22 49.716C71.524 49.46 71.676 49.104 71.676 48.648C71.676 48.184 71.516 47.82 71.196 47.556C70.876 47.284 70.448 47.148 69.912 47.148H68.016V50.1H69.948ZM80.3554 44.424V51H79.2634V50.028C79.0554 50.364 78.7634 50.628 78.3874 50.82C78.0194 51.004 77.6114 51.096 77.1634 51.096C76.6514 51.096 76.1914 50.992 75.7834 50.784C75.3754 50.568 75.0514 50.248 74.8114 49.824C74.5794 49.4 74.4634 48.884 74.4634 48.276V44.424H75.5434V48.132C75.5434 48.78 75.7074 49.28 76.0354 49.632C76.3634 49.976 76.8114 50.148 77.3794 50.148C77.9634 50.148 78.4234 49.968 78.7594 49.608C79.0954 49.248 79.2634 48.724 79.2634 48.036V44.424H80.3554ZM83.0032 43.356C82.7952 43.356 82.6192 43.284 82.4752 43.14C82.3312 42.996 82.2592 42.82 82.2592 42.612C82.2592 42.404 82.3312 42.228 82.4752 42.084C82.6192 41.94 82.7952 41.868 83.0032 41.868C83.2032 41.868 83.3712 41.94 83.5072 42.084C83.6512 42.228 83.7232 42.404 83.7232 42.612C83.7232 42.82 83.6512 42.996 83.5072 43.14C83.3712 43.284 83.2032 43.356 83.0032 43.356ZM83.5312 44.424V51H82.4392V44.424H83.5312ZM86.7243 42.12V51H85.6323V42.12H86.7243ZM88.4174 47.688C88.4174 47.016 88.5534 46.428 88.8254 45.924C89.0974 45.412 89.4694 45.016 89.9414 44.736C90.4214 44.456 90.9574 44.316 91.5494 44.316C92.0614 44.316 92.5374 44.436 92.9774 44.676C93.4174 44.908 93.7534 45.216 93.9854 45.6V42.12H95.0894V51H93.9854V49.764C93.7694 50.156 93.4494 50.48 93.0254 50.736C92.6014 50.984 92.1054 51.108 91.5374 51.108C90.9534 51.108 90.4214 50.964 89.9414 50.676C89.4694 50.388 89.0974 49.984 88.8254 49.464C88.5534 48.944 88.4174 48.352 88.4174 47.688ZM93.9854 47.7C93.9854 47.204 93.8854 46.772 93.6854 46.404C93.4854 46.036 93.2134 45.756 92.8694 45.564C92.5334 45.364 92.1614 45.264 91.7534 45.264C91.3454 45.264 90.9734 45.36 90.6374 45.552C90.3014 45.744 90.0334 46.024 89.8334 46.392C89.6334 46.76 89.5334 47.192 89.5334 47.688C89.5334 48.192 89.6334 48.632 89.8334 49.008C90.0334 49.376 90.3014 49.66 90.6374 49.86C90.9734 50.052 91.3454 50.148 91.7534 50.148C92.1614 50.148 92.5334 50.052 92.8694 49.86C93.2134 49.66 93.4854 49.376 93.6854 49.008C93.8854 48.632 93.9854 48.196 93.9854 47.7ZM97.7388 43.356C97.5308 43.356 97.3548 43.284 97.2108 43.14C97.0668 42.996 96.9948 42.82 96.9948 42.612C96.9948 42.404 97.0668 42.228 97.2108 42.084C97.3548 41.94 97.5308 41.868 97.7388 41.868C97.9388 41.868 98.1068 41.94 98.2428 42.084C98.3868 42.228 98.4588 42.404 98.4588 42.612C98.4588 42.82 98.3868 42.996 98.2428 43.14C98.1068 43.284 97.9388 43.356 97.7388 43.356ZM98.2668 44.424V51H97.1748V44.424H98.2668ZM103.572 44.304C104.372 44.304 105.02 44.548 105.516 45.036C106.012 45.516 106.26 46.212 106.26 47.124V51H105.18V47.28C105.18 46.624 105.016 46.124 104.688 45.78C104.36 45.428 103.912 45.252 103.344 45.252C102.768 45.252 102.308 45.432 101.964 45.792C101.628 46.152 101.46 46.676 101.46 47.364V51H100.368V44.424H101.46V45.36C101.676 45.024 101.968 44.764 102.336 44.58C102.712 44.396 103.124 44.304 103.572 44.304ZM110.996 44.316C111.564 44.316 112.06 44.44 112.484 44.688C112.916 44.936 113.236 45.248 113.444 45.624V44.424H114.548V51.144C114.548 51.744 114.42 52.276 114.164 52.74C113.908 53.212 113.54 53.58 113.06 53.844C112.588 54.108 112.036 54.24 111.404 54.24C110.54 54.24 109.82 54.036 109.244 53.628C108.668 53.22 108.328 52.664 108.224 51.96H109.304C109.424 52.36 109.672 52.68 110.048 52.92C110.424 53.168 110.876 53.292 111.404 53.292C112.004 53.292 112.492 53.104 112.868 52.728C113.252 52.352 113.444 51.824 113.444 51.144V49.764C113.228 50.148 112.908 50.468 112.484 50.724C112.06 50.98 111.564 51.108 110.996 51.108C110.412 51.108 109.88 50.964 109.4 50.676C108.928 50.388 108.556 49.984 108.284 49.464C108.012 48.944 107.876 48.352 107.876 47.688C107.876 47.016 108.012 46.428 108.284 45.924C108.556 45.412 108.928 45.016 109.4 44.736C109.88 44.456 110.412 44.316 110.996 44.316ZM113.444 47.7C113.444 47.204 113.344 46.772 113.144 46.404C112.944 46.036 112.672 45.756 112.328 45.564C111.992 45.364 111.62 45.264 111.212 45.264C110.804 45.264 110.432 45.36 110.096 45.552C109.76 45.744 109.492 46.024 109.292 46.392C109.092 46.76 108.992 47.192 108.992 47.688C108.992 48.192 109.092 48.632 109.292 49.008C109.492 49.376 109.76 49.66 110.096 49.86C110.432 50.052 110.804 50.148 111.212 50.148C111.62 50.148 111.992 50.052 112.328 49.86C112.672 49.66 112.944 49.376 113.144 49.008C113.344 48.632 113.444 48.196 113.444 47.7ZM118.961 51.108C118.457 51.108 118.005 51.024 117.605 50.856C117.205 50.68 116.889 50.44 116.657 50.136C116.425 49.824 116.297 49.468 116.273 49.068H117.401C117.433 49.396 117.585 49.664 117.857 49.872C118.137 50.08 118.501 50.184 118.949 50.184C119.365 50.184 119.693 50.092 119.933 49.908C120.173 49.724 120.293 49.492 120.293 49.212C120.293 48.924 120.165 48.712 119.909 48.576C119.653 48.432 119.257 48.292 118.721 48.156C118.233 48.028 117.833 47.9 117.521 47.772C117.217 47.636 116.953 47.44 116.729 47.184C116.513 46.92 116.405 46.576 116.405 46.152C116.405 45.816 116.505 45.508 116.705 45.228C116.905 44.948 117.189 44.728 117.557 44.568C117.925 44.4 118.345 44.316 118.817 44.316C119.545 44.316 120.133 44.5 120.581 44.868C121.029 45.236 121.269 45.74 121.301 46.38H120.209C120.185 46.036 120.045 45.76 119.789 45.552C119.541 45.344 119.205 45.24 118.781 45.24C118.389 45.24 118.077 45.324 117.845 45.492C117.613 45.66 117.497 45.88 117.497 46.152C117.497 46.368 117.565 46.548 117.701 46.692C117.845 46.828 118.021 46.94 118.229 47.028C118.445 47.108 118.741 47.2 119.117 47.304C119.589 47.432 119.973 47.56 120.269 47.688C120.565 47.808 120.817 47.992 121.025 48.24C121.241 48.488 121.353 48.812 121.361 49.212C121.361 49.572 121.261 49.896 121.061 50.184C120.861 50.472 120.577 50.7 120.209 50.868C119.849 51.028 119.433 51.108 118.961 51.108Z" fill="#2A3644"/>
<defs>
<filter id="filter0_d_354_939" x="0" y="0" width="173" height="101" filterUnits="userSpaceOnUse" color-interpolation-filters="sRGB">
<feFlood flood-opacity="0" result="BackgroundImageFix"/>
<feColorMatrix in="SourceAlpha" type="matrix" values="0 0 0 0 0 0 0 0 0 0 0 0 0 0 0 0 0 0 127 0" result="hardAlpha"/>
<feOffset dy="4"/>
<feGaussianBlur stdDeviation="17"/>
<feComposite in2="hardAlpha" operator="out"/>
<feColorMatrix type="matrix" values="0 0 0 0 0.164706 0 0 0 0 0.211765 0 0 0 0 0.266667 0 0 0 0.2 0"/>
<feBlend mode="normal" in2="BackgroundImageFix" result="effect1_dropShadow_354_939"/>
<feBlend mode="normal" in="SourceGraphic" in2="effect1_dropShadow_354_939" result="shape"/>
</filter>
</defs>
</svg>
