<svg width="28" height="28" viewBox="0 0 28 28" fill="none" xmlns="http://www.w3.org/2000/svg">
<path d="M5.9375 25.5C5.6875 26.9375 4.4375 28 3 28C1.3125 28 0 26.6875 0 25C0 23.5625 1.0625 22.3125 2.5 22.0625V6C1.0625 5.75 0 4.5 0 3C0 1.375 1.3125 0 3 0C4.4375 0 5.6875 1.125 5.9375 2.5H22C22.25 1.125 23.5 0 25 0C26.625 0 28 1.375 28 3C28 4.5 26.875 5.75 25.5 6V22.0625C26.875 22.3125 28 23.5625 28 25C28 26.6875 26.625 28 25 28C23.5 28 22.25 26.9375 22 25.5H5.9375ZM3 5C4.0625 5 5 4.125 5 3C5 1.9375 4.0625 1 3 1C1.875 1 1 1.9375 1 3C1 4.125 1.875 5 3 5ZM3.5 22.0625C4.75 22.25 5.6875 23.25 5.9375 24.5H22C22.25 23.25 23.1875 22.25 24.5 22.0625V6C23.1875 5.75 22.25 4.8125 22 3.5H5.9375C5.6875 4.8125 4.75 5.75 3.5 6V22.0625ZM3 23C1.875 23 1 23.9375 1 25C1 26.125 1.875 27 3 27C4.0625 27 5 26.125 5 25C5 23.9375 4.0625 23 3 23ZM25 23C23.875 23 23 23.9375 23 25C23 26.125 23.875 27 25 27C26.0625 27 27 26.125 27 25C27 23.9375 26.0625 23 25 23ZM25 1C23.875 1 23 1.9375 23 3C23 4.125 23.875 5 25 5C26.0625 5 27 4.125 27 3C27 1.9375 26.0625 1 25 1Z" fill="#A0DDE6"/>
</svg>
