<svg width="24" height="32" viewBox="0 0 24 32" fill="none" xmlns="http://www.w3.org/2000/svg">
<path d="M15.8125 13.3125C14.3125 11.9375 12.9375 10.75 12.9375 9C12.9375 8.5 12.625 8.1875 12.3125 8.0625C11.875 7.9375 11.4375 8.0625 11.125 8.375C8.3125 12.4375 10 14 11.5 15.375C12.4375 16.3125 13.375 17.125 13.375 18.625C13.375 20.25 12.125 21.5 10.5625 21.5C9.0625 21.5 8 20.3125 8 18.625V16.25C8 16 7.875 15.75 7.6875 15.625C7.3125 15.1875 6.6875 15.1875 6.3125 15.625C5.6875 16.1875 4 17.9375 4 20.75C4 21.0625 4.1875 21.1875 4.5 21.1875C4.75 21.1875 5 21 5 20.75C5 18.375 6.5 16.8125 7 16.25V18.625C7 20.875 8.5 22.5625 10.5625 22.5625C12.625 22.5625 14.375 20.8125 14.375 18.625C14.375 16.6875 13.1875 15.625 12.125 14.6875C10.6875 13.3125 9.625 12.3125 11.9375 8.9375C11.9375 11.25 13.5625 12.625 15.125 14.0625C17.125 15.75 19 17.4375 19 20.75C19 21.0625 19.1875 21.1875 19.5 21.1875C19.75 21.1875 20 21.0625 20 20.75C20 16.9375 17.75 15 15.8125 13.3125ZM13 0.4375C12.4375 -0.125 11.5 -0.125 10.9375 0.4375C4.1875 6.875 0 13.8125 0 18.5625C0 26.5 4.875 32 12 32C19.0625 32 24 26.5 24 18.5625C24 13.8125 19.75 6.875 13 0.4375ZM12 31C5.5 31 1 25.9375 1 18.5625C1 14.1875 5.1875 7.3125 11.625 1.125C11.75 1.0625 11.875 1.0625 12 1.0625C12.0625 1.0625 12.1875 1.0625 12.3125 1.1875C18.75 7.3125 23 14.1875 23 18.5625C23 25.9375 18.4375 31 12 31Z" fill="#A0DDE6"/>
</svg>
