<svg width="41" height="26" viewBox="0 0 41 26" fill="none" xmlns="http://www.w3.org/2000/svg">
<path d="M11.375 14C11.4375 14 11.4375 14 11.5 14C11.75 14 11.9375 13.875 12 13.625C13.8125 2.6875 15.875 1 16.9375 1C17.5 1 18.125 1.25 18.6875 1.6875C20.0625 2.75 21.9375 2.75 23.25 1.6875C23.8125 1.25 24.4375 1 25 1C26.0625 1 28.125 2.6875 29.9375 13.625C30 13.875 30.25 14.0625 30.5625 14C30.8125 14 31 13.75 30.9375 13.4375C29.4375 4.3125 27.5625 0 25 0C24.1875 0 23.375 0.3125 22.625 0.9375C21.625 1.6875 20.3125 1.6875 19.3125 0.9375C18.5625 0.3125 17.75 0 16.9375 0C14.4375 0 12.5 4.4375 11 13.4375C10.9375 13.75 11.125 14 11.375 14ZM40.3125 12.25C39.75 11.9375 39 11.9375 38.5 12.375C38.25 12.625 32.25 17.5625 21 17.5625C9.68748 17.5625 3.68748 12.625 3.43748 12.375C2.93748 11.9375 2.18748 11.9375 1.62498 12.25C1.06248 12.625 0.812484 13.3125 1.06248 13.9375C1.12498 14.0625 5.87498 26 20.9375 26C35.8125 26 40.625 14.4375 40.8125 13.9375C41.125 13.3125 40.875 12.625 40.3125 12.25ZM21 25C6.62498 25 2.06248 13.6875 1.99998 13.625C1.93748 13.4375 1.99998 13.1875 2.18748 13.125C2.24998 13.0625 2.37498 13 2.43748 13C2.56248 13 2.68748 13.0625 2.74998 13.125C3.06248 13.375 9.31248 18.5625 21 18.5625C32.625 18.5625 38.875 13.375 39.1875 13.125C39.3125 13 39.5625 13 39.75 13.125C39.9375 13.25 40 13.4375 39.9375 13.625C39.75 14.0625 35.1875 25 21 25Z" fill="#A0DDE6"/>
</svg>
