<svg width="975" height="150" viewBox="0 0 975 150" fill="#1F2934" xmlns="http://www.w3.org/2000/svg">
<g opacity="0.3">
<path d="M18.8148 133.2H67.6148V148H0.614838V8.6H18.8148V133.2Z" fill="#1F2934"/>
<path d="M190.943 89C190.943 92.4667 190.743 96.1333 190.343 100H102.743C103.41 110.8 107.076 119.267 113.743 125.4C120.543 131.4 128.743 134.4 138.343 134.4C146.21 134.4 152.743 132.6 157.943 129C163.276 125.267 167.01 120.333 169.143 114.2H188.743C185.81 124.733 179.943 133.333 171.143 140C162.343 146.533 151.41 149.8 138.343 149.8C127.943 149.8 118.61 147.467 110.343 142.8C102.21 138.133 95.8096 131.533 91.143 123C86.4763 114.333 84.143 104.333 84.143 93C84.143 81.6667 86.4096 71.7333 90.943 63.2C95.4763 54.6667 101.81 48.1333 109.943 43.6C118.21 38.9333 127.676 36.6 138.343 36.6C148.743 36.6 157.943 38.8667 165.943 43.4C173.943 47.9333 180.076 54.2 184.343 62.2C188.743 70.0667 190.943 79 190.943 89ZM172.143 85.2C172.143 78.2667 170.61 72.3333 167.543 67.4C164.476 62.3333 160.276 58.5333 154.943 56C149.743 53.3333 143.943 52 137.543 52C128.343 52 120.476 54.9333 113.943 60.8C107.543 66.6667 103.876 74.8 102.943 85.2H172.143Z" fill="#1F2934"/>
<path d="M241.166 53.4V118C241.166 123.333 242.3 127.133 244.566 129.4C246.833 131.533 250.766 132.6 256.366 132.6H269.766V148H253.366C243.233 148 235.633 145.667 230.566 141C225.5 136.333 222.966 128.667 222.966 118V53.4H208.766V38.4H222.966V10.8H241.166V38.4H269.766V53.4H241.166Z" fill="#1F2934"/>
<path d="M298.618 8.6H318.818L299.618 54H286.818L298.618 8.6Z" fill="#1F2934"/>
<path d="M382.368 149.8C373.968 149.8 366.435 148.4 359.768 145.6C353.101 142.667 347.835 138.667 343.968 133.6C340.101 128.4 337.968 122.467 337.568 115.8H356.368C356.901 121.267 359.435 125.733 363.968 129.2C368.635 132.667 374.701 134.4 382.168 134.4C389.101 134.4 394.568 132.867 398.568 129.8C402.568 126.733 404.568 122.867 404.568 118.2C404.568 113.4 402.435 109.867 398.168 107.6C393.901 105.2 387.301 102.867 378.368 100.6C370.235 98.4667 363.568 96.3333 358.368 94.2C353.301 91.9333 348.901 88.6667 345.168 84.4C341.568 80 339.768 74.2667 339.768 67.2C339.768 61.6 341.435 56.4667 344.768 51.8C348.101 47.1333 352.835 43.4667 358.968 40.8C365.101 38 372.101 36.6 379.968 36.6C392.101 36.6 401.901 39.6667 409.368 45.8C416.835 51.9333 420.835 60.3333 421.368 71H403.168C402.768 65.2667 400.435 60.6667 396.168 57.2C392.035 53.7333 386.435 52 379.368 52C372.835 52 367.635 53.4 363.768 56.2C359.901 59 357.968 62.6667 357.968 67.2C357.968 70.8 359.101 73.8 361.368 76.2C363.768 78.4667 366.701 80.3333 370.168 81.8C373.768 83.1333 378.701 84.6667 384.968 86.4C392.835 88.5333 399.235 90.6667 404.168 92.8C409.101 94.8 413.301 97.8667 416.768 102C420.368 106.133 422.235 111.533 422.368 118.2C422.368 124.2 420.701 129.6 417.368 134.4C414.035 139.2 409.301 143 403.168 145.8C397.168 148.467 390.235 149.8 382.368 149.8Z" fill="#1F2934"/>
<path d="M502.58 78.2C502.58 64.6 505.647 52.4 511.78 41.6C517.914 30.6667 526.247 22.1333 536.78 16C547.447 9.86666 559.247 6.8 572.18 6.8C587.38 6.8 600.647 10.4667 611.98 17.8C623.314 25.1333 631.58 35.5333 636.78 49H614.98C611.114 40.6 605.514 34.1333 598.18 29.6C590.98 25.0667 582.314 22.8 572.18 22.8C562.447 22.8 553.714 25.0667 545.98 29.6C538.247 34.1333 532.18 40.6 527.78 49C523.38 57.2667 521.18 67 521.18 78.2C521.18 89.2667 523.38 99 527.78 107.4C532.18 115.667 538.247 122.067 545.98 126.6C553.714 131.133 562.447 133.4 572.18 133.4C582.314 133.4 590.98 131.2 598.18 126.8C605.514 122.267 611.114 115.8 614.98 107.4H636.78C631.58 120.733 623.314 131.067 611.98 138.4C600.647 145.6 587.38 149.2 572.18 149.2C559.247 149.2 547.447 146.2 536.78 140.2C526.247 134.067 517.914 125.6 511.78 114.8C505.647 104 502.58 91.8 502.58 78.2Z" fill="#1F2934"/>
<path d="M722.273 36.4C730.539 36.4 738.006 38.2 744.673 41.8C751.339 45.2667 756.539 50.5333 760.273 57.6C764.139 64.6667 766.073 73.2667 766.073 83.4V148H748.073V86C748.073 75.0667 745.339 66.7333 739.873 61C734.406 55.1333 726.939 52.2 717.473 52.2C707.873 52.2 700.206 55.2 694.473 61.2C688.873 67.2 686.073 75.9333 686.073 87.4V148H667.873V0H686.073V54C689.673 48.4 694.606 44.0667 700.873 41C707.273 37.9333 714.406 36.4 722.273 36.4Z" fill="#1F2934"/>
<path d="M870.002 128.2C866.669 134.467 861.336 139.667 854.002 143.8C846.669 147.933 838.602 150 829.802 150C822.736 150 816.402 148.6 810.802 145.8C805.202 143 800.802 139.133 797.602 134.2C794.536 129.267 793.002 123.667 793.002 117.4C793.002 107.4 796.669 99.2 804.002 92.8C811.336 86.2667 822.069 83 836.202 83H870.002C869.736 73.5333 867.136 66.0667 862.202 60.6C857.402 55.1333 850.736 52.4 842.202 52.4C834.469 52.4 828.069 54.5333 823.002 58.8C818.069 63.0667 814.936 69 813.602 76.6H795.802C797.402 64.6 802.336 54.9333 810.602 47.6C819.002 40.2667 829.802 36.6 843.002 36.6C851.669 36.6 859.402 38.4667 866.202 42.2C873.136 45.9333 878.536 51.3333 882.402 58.4C886.402 65.4667 888.402 73.9333 888.402 83.8V148H870.002V128.2ZM833.402 134C839.536 134 845.402 132.667 851.002 130C856.602 127.333 861.136 123.4 864.602 118.2C868.202 113 870.002 106.8 870.002 99.6V97.8H836.202C827.936 97.8 821.736 99.4667 817.602 102.8C813.469 106.133 811.402 110.6 811.402 116.2C811.402 121.533 813.336 125.867 817.202 129.2C821.202 132.4 826.602 134 833.402 134Z" fill="#1F2934"/>
<path d="M945.534 53.4V118C945.534 123.333 946.667 127.133 948.934 129.4C951.2 131.533 955.134 132.6 960.734 132.6H974.134V148H957.734C947.6 148 940 145.667 934.934 141C929.867 136.333 927.334 128.667 927.334 118V53.4H913.134V38.4H927.334V10.8H945.534V38.4H974.134V53.4H945.534Z" fill="#1F2934"/>
</g>
</svg>
