<svg width="81" height="81" viewBox="0 0 81 81" fill="none" xmlns="http://www.w3.org/2000/svg">
<path d="M35.7907 20.5966L24.5868 14.9412L12.291 21.0777L23.7978 26.8563L35.7907 20.5966Z" fill="#CAD1DA"/>
<path d="M40.9261 23.1887L52.6727 29.1179L40.4854 35.2383L28.9608 29.45L40.9261 23.1887Z" fill="#CAD1DA"/>
<path d="M56.6141 15.0271L68.6815 21.0778L57.8891 26.4983L46.1182 20.561L56.6141 15.0271Z" fill="#CAD1DA"/>
<path d="M51.4204 12.4206L40.5567 6.97412L29.8096 12.3363L41.0038 17.982L51.4204 12.4206Z" fill="#CAD1DA"/>
<path d="M42.9268 59.2014V74.026L56.0876 67.4585L56.0731 52.6274L42.9268 59.2014Z" fill="#CAD1DA"/>
<path d="M56.0682 47.4515L56.0536 32.7759L42.9268 39.3012V53.9817L56.0682 47.4515Z" fill="#CAD1DA"/>
<path d="M71.868 44.7007V59.5836L60.643 65.1856L60.6349 50.3707L71.868 44.7007Z" fill="#CAD1DA"/>
<path d="M71.8681 39.4973V24.9141L60.622 30.5047L60.6317 45.2094L71.8681 39.4973Z" fill="#CAD1DA"/>
<path d="M38.2806 39.3011L29.4159 34.8445V54.1079C29.4159 54.1079 18.5749 31.0408 17.5705 28.9688C17.4409 28.7015 16.9079 28.4083 16.7718 28.337C14.8278 27.3164 9.13193 24.4312 9.13193 24.4312V58.4641L17.0116 62.6761V44.8869C17.0116 44.8869 27.7376 65.4982 27.8462 65.7233C27.9547 65.9485 29.032 68.1209 30.1822 68.884C31.7147 69.8981 38.2822 73.8476 38.2822 73.8476L38.2806 39.3011Z" fill="#CAD1DA"/>
</svg>
