<svg width="92" height="55" viewBox="0 0 92 55" fill="none" xmlns="http://www.w3.org/2000/svg">
<g style="mix-blend-mode:luminosity" opacity="0.8" clip-path="url(#clip0_92_2371)">
<path d="M26.1474 20.066C26.1474 21.1842 26.2684 22.0908 26.4803 22.7556C26.7224 23.4204 27.025 24.1457 27.4487 24.9314C27.6 25.1732 27.6605 25.4149 27.6605 25.6265C27.6605 25.9287 27.4789 26.2309 27.0855 26.5331L25.1789 27.8023C24.9066 27.9836 24.6342 28.0743 24.3921 28.0743C24.0895 28.0743 23.7868 27.9232 23.4842 27.6512C23.0605 27.1979 22.6974 26.7144 22.3947 26.2309C22.0921 25.7171 21.7895 25.143 21.4566 24.4479C19.0961 27.2281 16.1303 28.6182 12.5592 28.6182C10.0171 28.6182 7.98947 27.893 6.50658 26.4424C5.02368 24.9919 4.26711 23.0578 4.26711 20.6402C4.26711 18.0715 5.175 15.9864 7.02105 14.4149C8.86711 12.8435 11.3184 12.0578 14.4355 12.0578C15.4645 12.0578 16.5237 12.1485 17.6434 12.2996C18.7632 12.4507 19.9132 12.6924 21.1237 12.9644V10.7583C21.1237 8.46164 20.6395 6.85999 19.7013 5.92318C18.7329 4.98637 17.0987 4.53307 14.7684 4.53307C13.7092 4.53307 12.6197 4.65395 11.5 4.92593C10.3803 5.1979 9.29079 5.53032 8.23158 5.9534C7.74737 6.16494 7.38421 6.28582 7.17237 6.34626C6.96053 6.4067 6.80921 6.43692 6.68816 6.43692C6.26447 6.43692 6.05263 6.13472 6.05263 5.5001V4.01933C6.05263 3.53582 6.11316 3.17318 6.26447 2.96164C6.41579 2.7501 6.68816 2.53856 7.11184 2.32703C8.17105 1.78307 9.4421 1.32977 10.925 0.967135C12.4079 0.574278 13.9816 0.392959 15.6461 0.392959C19.2474 0.392959 21.8803 1.20889 23.575 2.84076C25.2395 4.47263 26.0868 6.95065 26.0868 10.2748V20.066H26.1474ZM13.8605 24.6594C14.8592 24.6594 15.8882 24.4781 16.9776 24.1155C18.0671 23.7529 19.0355 23.088 19.8526 22.1814C20.3368 21.6072 20.7 20.9726 20.8816 20.2474C21.0632 19.5221 21.1842 18.6457 21.1842 17.6182V16.349C20.3066 16.1375 19.3684 15.9561 18.4 15.8353C17.4316 15.7144 16.4934 15.6539 15.5553 15.6539C13.5276 15.6539 12.0447 16.0468 11.0461 16.8627C10.0474 17.6787 9.56316 18.827 9.56316 20.338C9.56316 21.7583 9.92632 22.816 10.6829 23.5413C11.4092 24.2968 12.4684 24.6594 13.8605 24.6594ZM38.1618 27.9232C37.6171 27.9232 37.2539 27.8325 37.0118 27.621C36.7697 27.4397 36.5579 27.0166 36.3763 26.4424L29.2645 3.08252C29.0829 2.47812 28.9921 2.08527 28.9921 1.87373C28.9921 1.39021 29.2342 1.11823 29.7184 1.11823H32.6842C33.2592 1.11823 33.6526 1.20889 33.8645 1.42043C34.1066 1.60175 34.2882 2.02483 34.4697 2.599L39.5539 22.6045L44.275 2.599C44.4263 1.99461 44.6079 1.60175 44.85 1.42043C45.0921 1.23911 45.5158 1.11823 46.0605 1.11823H48.4816C49.0566 1.11823 49.45 1.20889 49.6921 1.42043C49.9342 1.60175 50.1461 2.02483 50.2671 2.599L55.0487 22.8463L60.2842 2.599C60.4658 1.99461 60.6776 1.60175 60.8895 1.42043C61.1316 1.23911 61.525 1.11823 62.0697 1.11823H64.8842C65.3684 1.11823 65.6408 1.35999 65.6408 1.87373C65.6408 2.02483 65.6105 2.17593 65.5803 2.35724C65.55 2.53856 65.4895 2.78032 65.3684 3.11274L58.075 26.4726C57.8934 27.077 57.6816 27.4699 57.4395 27.6512C57.1974 27.8325 56.8039 27.9534 56.2895 27.9534H53.6868C53.1118 27.9534 52.7184 27.8627 52.4763 27.6512C52.2342 27.4397 52.0224 27.0468 51.9013 26.4424L47.2105 6.95065L42.55 26.4122C42.3987 27.0166 42.2171 27.4094 41.975 27.621C41.7329 27.8325 41.3092 27.9232 40.7645 27.9232H38.1618ZM77.05 28.7391C75.4763 28.7391 73.9026 28.5578 72.3895 28.1952C70.8763 27.8325 69.6961 27.4397 68.9092 26.9864C68.425 26.7144 68.0921 26.4122 67.9711 26.1402C67.85 25.8682 67.7895 25.566 67.7895 25.2941V23.7529C67.7895 23.1182 68.0316 22.816 68.4855 22.816C68.6671 22.816 68.8487 22.8463 69.0303 22.9067C69.2118 22.9671 69.4842 23.088 69.7868 23.2089C70.8158 23.6622 71.9355 24.0248 73.1158 24.2666C74.3263 24.5083 75.5066 24.6292 76.7171 24.6292C78.6237 24.6292 80.1066 24.2968 81.1355 23.632C82.1645 22.9671 82.7092 22.0001 82.7092 20.7611C82.7092 19.9149 82.4368 19.2199 81.8921 18.6457C81.3474 18.0715 80.3184 17.5578 78.8355 17.0743L74.4474 15.7144C72.2382 15.0193 70.6039 13.9919 69.6053 12.632C68.6066 11.3023 68.0921 9.82153 68.0921 8.2501C68.0921 6.98087 68.3645 5.86274 68.9092 4.89571C69.4539 3.92867 70.1803 3.08252 71.0882 2.41768C71.9961 1.72263 73.025 1.20889 74.2355 0.846256C75.4461 0.483618 76.7171 0.33252 78.0487 0.33252C78.7145 0.33252 79.4105 0.362739 80.0763 0.453399C80.7724 0.544058 81.4079 0.664937 82.0434 0.785816C82.6487 0.936915 83.2237 1.08801 83.7684 1.26933C84.3132 1.45065 84.7368 1.63197 85.0395 1.81329C85.4632 2.05505 85.7658 2.29681 85.9474 2.56878C86.1289 2.81054 86.2197 3.14296 86.2197 3.56604V4.98637C86.2197 5.62098 85.9776 5.9534 85.5237 5.9534C85.2816 5.9534 84.8882 5.83252 84.3737 5.59076C82.6487 4.80505 80.7118 4.41219 78.5632 4.41219C76.8382 4.41219 75.4763 4.68417 74.5382 5.25834C73.6 5.83252 73.1158 6.70889 73.1158 7.9479C73.1158 8.79406 73.4184 9.51933 74.0237 10.0935C74.6289 10.6677 75.7487 11.2419 77.3526 11.7556L81.65 13.1155C83.8289 13.8105 85.4026 14.7776 86.3408 16.0166C87.2789 17.2556 87.7329 18.6759 87.7329 20.2474C87.7329 21.5468 87.4605 22.7254 86.946 23.7529C86.4013 24.7803 85.675 25.6869 84.7368 26.4122C83.7987 27.1677 82.6789 27.7116 81.3776 28.1045C80.0158 28.5276 78.5934 28.7391 77.05 28.7391Z" fill="white"/>
<path fill-rule="evenodd" clip-rule="evenodd" d="M82.7697 43.4257C72.8132 50.7691 58.3474 54.6675 45.9092 54.6675C28.4776 54.6675 12.7711 48.2307 0.907894 37.5329C-0.0302639 36.6867 0.817105 35.5384 1.93684 36.2032C14.7684 43.6373 30.5961 48.14 46.9684 48.14C58.0145 48.14 70.15 45.8433 81.3171 41.129C82.9816 40.3735 84.404 42.2169 82.7697 43.4257Z" fill="white"/>
<path fill-rule="evenodd" clip-rule="evenodd" d="M86.9158 38.7116C85.6447 37.0798 78.5026 37.9259 75.2645 38.3188C74.2961 38.4397 74.1447 37.5935 75.0224 36.9589C80.7118 32.9699 90.0632 34.1182 91.1526 35.4479C92.2421 36.8078 90.85 46.1457 85.5237 50.6182C84.7066 51.3133 83.9197 50.9506 84.2829 50.0441C85.4934 47.0523 88.1869 40.3133 86.9158 38.7116Z" fill="white"/>
</g>
<defs>
<clipPath id="clip0_92_2371">
<rect width="92" height="55" fill="white"/>
</clipPath>
</defs>
</svg>
