<svg width="40" height="30" viewBox="0 0 40 30" fill="none" xmlns="http://www.w3.org/2000/svg">
<path d="M8.5 14.5H21.5V8C19.5 7.75 18 6.0625 18 4C18 1.8125 19.75 0 22 0C24.1875 0 26 1.8125 26 4C26 6.0625 24.4375 7.75 22.5 8V14.5H38.1875L33.625 10.375C33.4375 10.1875 33.4375 9.875 33.625 9.6875C33.8125 9.5 34.125 9.5 34.3125 9.6875L39.8125 14.6875C39.9375 14.75 40 14.875 40 15C40 15.1875 39.9375 15.3125 39.8125 15.375L34.3125 20.375C34.125 20.5625 33.8125 20.5625 33.625 20.375C33.4375 20.1875 33.4375 19.875 33.625 19.6875L38.1875 15.5H14.5V22.0625C16.4375 22.3125 18 24 18 26C18 28.25 16.1875 30 14 30C11.75 30 10 28.25 10 26C10 24 11.5 22.3125 13.5 22.0625V15.5H0.5C0.1875 15.5 0 15.3125 0 15C0 14.75 0.1875 14.5 0.5 14.5H7.5V8C5.5 7.75 4 6.0625 4 4C4 1.8125 5.75 0 8 0C10.1875 0 12 1.8125 12 4C12 6.0625 10.4375 7.75 8.5 8V14.5ZM8 7C9.625 7 11 5.6875 11 4C11 2.375 9.625 1 8 1C6.3125 1 5 2.375 5 4C5 5.6875 6.3125 7 8 7ZM22 1C20.3125 1 19 2.375 19 4C19 5.6875 20.3125 7 22 7C23.625 7 25 5.6875 25 4C25 2.375 23.625 1 22 1ZM14 23C12.3125 23 11 24.375 11 26C11 27.6875 12.3125 29 14 29C15.625 29 17 27.6875 17 26C17 24.375 15.625 23 14 23Z" fill="#A0DDE6"/>
</svg>
