<svg width="32" height="32" viewBox="0 0 32 32" fill="none" xmlns="http://www.w3.org/2000/svg">
<path d="M7.9375 17.6875C7.25 17.6875 6.5625 17.1875 6.4375 16.5C6.3125 15.75 6.6875 15.0625 7.3125 14.75L21.125 8.8125C21.75 8.625 22.375 8.75 22.8125 9.1875C23.25 9.625 23.4375 10.3125 23.1875 10.875L17.25 24.625C17 25.25 16.4375 25.5625 15.8125 25.5625C15.75 25.5625 15.625 25.5625 15.5 25.5625C14.8125 25.4375 14.3125 24.75 14.3125 24.0625V17.6875H7.9375ZM7.4375 16.25C7.4375 16.5 7.6875 16.6875 7.9375 16.6875H15.25V24.0625C15.25 24.3125 15.4375 24.5 15.6875 24.5625C15.75 24.5625 15.8125 24.5625 15.8125 24.5625C16.0625 24.5625 16.25 24.4375 16.3125 24.25L22.25 10.5C22.3125 10.25 22.25 10.0625 22.125 9.875C22 9.75 21.75 9.6875 21.5 9.75L7.75 15.6875C7.5 15.75 7.375 16 7.4375 16.25ZM32 16C32 24.875 24.8125 32 16 32C7.125 32 0 24.875 0 16C0 7.1875 7.125 0 16 0C24.8125 0 32 7.1875 32 16ZM16 1C7.6875 1 1 7.75 1 16C1 24.3125 7.6875 31 16 31C24.25 31 31 24.3125 31 16C31 7.75 24.25 1 16 1Z" fill="#A0DDE6"/>
</svg>
