<svg width="40" height="28" viewBox="0 0 40 28" fill="none" xmlns="http://www.w3.org/2000/svg">
<path d="M31.5 22H18.5C18.1875 22 18 21.8125 18 21.5C18 21.25 18.1875 21 18.5 21H31.5C31.75 21 32 21.25 32 21.5C32 21.8125 31.75 22 31.5 22ZM15.5 21C15.75 21 16 21.25 16 21.5C16 21.8125 15.75 22 15.5 22H8.5C8.1875 22 8 21.8125 8 21.5C8 21.25 8.1875 21 8.5 21H15.5ZM8 17.5C8 17.25 8.1875 17 8.5 17H21.5C21.75 17 22 17.25 22 17.5C22 17.8125 21.75 18 21.5 18H8.5C8.1875 18 8 17.8125 8 17.5ZM31.5 17C31.75 17 32 17.25 32 17.5C32 17.8125 31.75 18 31.5 18H24.5C24.1875 18 24 17.8125 24 17.5C24 17.25 24.1875 17 24.5 17H31.5ZM24.625 5.0625C24.875 4.875 25.0625 4.75 25.3125 4.625C26.125 4.25 27 4 28 4C31.3125 4 34 6.6875 34 10C34 10.4375 33.9375 10.8125 33.875 11.25C33.8125 11.5625 33.6875 11.875 33.5625 12.1875C33.875 12.25 34.25 12.3125 34.5625 12.4375C37.6875 13.5 40 16.5 40 20C40 24.4375 36.375 28 32 28H9C4 28 0 24 0 19C0 15.125 2.5 11.75 6 10.5625C6 10.375 6 10.1875 6 10C6 4.5 10.4375 0 16 0C19.3125 0 22.25 1.6875 24.125 4.1875C24.3125 4.4375 24.5 4.75 24.625 5.0625ZM32.6875 12.6875C32.5625 12.4375 32.5 12.125 32.625 11.8125C32.875 11.25 33 10.6875 33 10C33 7.25 30.75 5 28 5C26.9375 5 26 5.3125 25.1875 5.875C24.9375 6 24.6875 6.0625 24.4375 6C24.125 5.9375 23.9375 5.75 23.75 5.5625C22.1875 2.8125 19.3125 1 16 1C11 1 7 5.0625 7 10C7 10.1875 7 10.3125 7 10.5C7 10.9375 6.75 11.3125 6.3125 11.5C3.1875 12.5625 1 15.5625 1 19C1 23.4375 4.5625 27 9 27H32C35.8125 27 39 23.875 39 20C39 16.625 36.5625 13.8125 33.375 13.1875C33.0625 13.125 32.8125 12.9375 32.6875 12.6875Z" fill="#A0DDE6"/>
</svg>
