<svg width="36" height="28" viewBox="0 0 36 28" fill="none" xmlns="http://www.w3.org/2000/svg">
<path d="M22.125 1C21.625 1 21.125 1.3125 20.8125 1.8125L16 10.75C15.5625 11.5 14.6875 12 13.8125 12H0.5C0.1875 12 0 11.8125 0 11.5C0 11.25 0.1875 11 0.5 11H13.8125C14.3125 11 14.8125 10.75 15.125 10.25L19.9375 1.3125C20.375 0.5 21.25 0 22.125 0H35.5C35.75 0 36 0.25 36 0.5C36 0.8125 35.75 1 35.5 1H22.125ZM10.875 17L16.8125 26.3125C17.0625 26.75 17.5625 27 18.0625 27H35.5C35.75 27 36 27.25 36 27.5C36 27.8125 35.75 28 35.5 28H18.0625C17.1875 28 16.4375 27.5625 15.9375 26.875L9.6875 17H0.5C0.1875 17 0 16.8125 0 16.5C0 16.25 0.1875 16 0.5 16H35.5C35.75 16 36 16.25 36 16.5C36 16.8125 35.75 17 35.5 17H10.875Z" fill="#A0DDE6"/>
</svg>
