<svg width="136" height="34" viewBox="0 0 136 34" fill="none" xmlns="http://www.w3.org/2000/svg">
<g style="mix-blend-mode:luminosity" opacity="0.8" clip-path="url(#clip0_84_1012)">
<path d="M17.5852 7.95198L15.7459 9.80653C18.7557 12.8412 18.7557 17.7305 15.7459 20.709C12.7361 23.7437 7.88688 23.7437 4.93279 20.709C1.92295 17.6743 1.92295 12.785 4.93279 9.80653L9.69836 5.00157L10.3672 4.32719V0.702393L3.17705 7.95198C-0.836065 11.9983 -0.836065 18.5173 3.17705 22.5636C7.19016 26.6098 13.6557 26.6098 17.5852 22.5636C21.5984 18.4892 21.5984 11.9983 17.5852 7.95198Z" fill="white"/>
<path d="M15.3279 6.15369C15.3279 6.8986 14.729 7.50245 13.9902 7.50245C13.2514 7.50245 12.6525 6.8986 12.6525 6.15369C12.6525 5.40878 13.2514 4.80493 13.9902 4.80493C14.729 4.80493 15.3279 5.40878 15.3279 6.15369Z" fill="white"/>
<path d="M36.1738 17.2247H33.0803V25.233H30.7393V2.44458H36.4246C42.3607 2.44458 45.2033 5.39499 45.2033 9.52557C45.2869 14.6115 41.7754 17.2247 36.1738 17.2247ZM36.4246 4.72061C36.1738 4.72061 33.1639 4.72061 33.1639 4.72061V15.2016L36.341 15.1173C40.6049 15.033 42.9459 13.3471 42.9459 9.80656C42.9459 6.49086 40.6049 4.72061 36.4246 4.72061Z" fill="white"/>
<path d="M55.682 25.1488L54.3443 28.7736C52.8393 32.8199 51.2508 34 48.9934 34C47.7393 34 46.8197 33.6628 45.8164 33.2414L46.4852 31.1339C47.2377 31.5554 48.0738 31.8926 48.9934 31.8926C50.2475 31.8926 51.1672 31.2182 52.4213 28.0149L53.5082 25.0645L47.0705 8.59839H49.4951L54.6787 22.367L59.7787 8.59839H62.1197L55.682 25.1488Z" fill="white"/>
<path d="M69.7557 4.72054V25.3172H67.4148V4.72054H59.4721V2.52881H77.6426V4.72054C77.6148 4.72054 69.7557 4.72054 69.7557 4.72054Z" fill="white"/>
<path d="M84.2475 25.7388C79.6492 25.7388 76.3049 22.2826 76.3049 16.9718C76.3049 11.6611 79.8164 8.12061 84.4984 8.12061C89.1803 8.12061 92.441 11.5768 92.441 16.8875C92.3574 22.1983 88.8459 25.7388 84.2475 25.7388ZM84.3312 10.228C80.8197 10.228 78.5623 13.0099 78.5623 16.9718C78.5623 21.0181 80.9033 23.7999 84.4148 23.7999C87.9262 23.7999 90.1836 21.0181 90.1836 17.0561C90.1836 12.9256 87.8426 10.228 84.3312 10.228Z" fill="white"/>
<path d="M98.0426 25.3173H95.7852V8.59831L98.0426 8.09253V11.633C99.1295 9.52559 100.718 8.09253 102.892 8.09253C103.979 8.09253 104.982 8.42972 105.818 8.85121L105.233 10.9586C104.48 10.5372 103.644 10.2 102.725 10.2C100.969 10.2 99.3803 11.5487 98.0426 14.4991V25.3173Z" fill="white"/>
<path d="M114.625 25.7388C109.608 25.7388 106.515 22.114 106.515 16.9718C106.515 11.7454 109.943 8.12061 114.625 8.12061C116.631 8.12061 118.387 8.62639 119.808 9.55366L119.223 11.5768C117.969 10.7338 116.38 10.228 114.625 10.228C111.03 10.228 108.856 12.9256 108.856 16.8875C108.856 20.9338 111.197 23.6313 114.708 23.6313C116.38 23.6313 118.052 23.1256 119.307 22.2826L119.808 24.39C118.303 25.233 116.548 25.7388 114.625 25.7388Z" fill="white"/>
<path d="M133.631 25.3174V14.4992C133.631 11.5488 132.461 10.2843 130.12 10.2843C128.197 10.2843 126.357 11.2959 125.02 12.6447V25.3174H122.762V0.758715L125.02 0.25293V10.8182C126.775 9.04797 128.949 8.205 130.789 8.205C133.966 8.205 135.972 10.3124 135.972 13.9372V25.3455H133.631V25.3174Z" fill="white"/>
</g>
<defs>
<clipPath id="clip0_84_1012">
<rect width="136" height="34" fill="white"/>
</clipPath>
</defs>
</svg>
