<svg width="218" height="28" viewBox="0 0 218 28" fill="none" xmlns="http://www.w3.org/2000/svg">
<g clip-path="url(#clip0_84_935)">
<path d="M20.0121 28C14.2561 28 8.50014 24.0104 0.301812 16.0845C0.205565 15.9924 0.12915 15.8826 0.0769958 15.7616C0.0248415 15.6407 -0.00201416 15.5108 -0.00201416 15.3797C-0.00201416 15.2486 0.0248415 15.1188 0.0769958 14.9978C0.12915 14.8768 0.205565 14.767 0.301812 14.6749C7.88269 7.31417 13.8239 2.77274 20.0121 2.77274C26.2003 2.77274 32.1415 7.31417 39.7224 14.6749C39.8186 14.767 39.895 14.8768 39.9472 14.9978C39.9994 15.1188 40.0262 15.2486 40.0262 15.3797C40.0262 15.5108 39.9994 15.6407 39.9472 15.7616C39.895 15.8826 39.8186 15.9924 39.7224 16.0845C31.5584 24.0304 25.7681 28 20.0121 28ZM2.49032 15.3664C17.2199 29.4761 22.8112 29.4761 37.5339 15.3664C29.5002 7.65994 24.6978 4.76751 20.0121 4.76751C15.3264 4.76751 10.5583 7.65994 2.49032 15.3797V15.3664Z" fill="#2A3644"/>
<path opacity="0.5" d="M19.1624 7.01804L18.1726 8.08688C17.8081 8.48041 17.8418 9.08578 18.2479 9.43901L19.3507 10.3984C19.7567 10.7516 20.3813 10.7189 20.7458 10.3254L21.7356 9.25653C22.1 8.86299 22.0663 8.25762 21.6603 7.9044L20.5575 6.94504C20.1514 6.59182 19.5268 6.6245 19.1624 7.01804Z" fill="#169AA4"/>
<path opacity="0.5" d="M15.0053 14.4769L13.9574 13.4613C13.5716 13.0874 12.9461 13.0874 12.5603 13.4613L11.5125 14.4769C11.1267 14.8508 11.1267 15.457 11.5125 15.831L12.5603 16.8465C12.9461 17.2205 13.5716 17.2205 13.9574 16.8465L15.0053 15.831C15.3911 15.457 15.3911 14.8508 15.0053 14.4769Z" fill="#169AA4"/>
<path opacity="0.5" d="M21.8158 21.0742L20.7679 20.0586C20.3821 19.6847 19.7566 19.6847 19.3708 20.0586L18.323 21.0742C17.9372 21.4481 17.9372 22.0544 18.323 22.4283L19.3708 23.4439C19.7566 23.8178 20.3821 23.8178 20.7679 23.4439L21.8158 22.4283C22.2016 22.0544 22.2016 21.4481 21.8158 21.0742Z" fill="#169AA4"/>
<path d="M18.413 17.7732L17.3651 16.7576C16.9793 16.3837 16.3538 16.3837 15.968 16.7576L14.9202 17.7732C14.5344 18.1471 14.5344 18.7534 14.9202 19.1273L15.968 20.1429C16.3538 20.5168 16.9793 20.5168 17.3651 20.1429L18.413 19.1273C18.7988 18.7534 18.7988 18.1471 18.413 17.7732Z" fill="#169AA4"/>
<path d="M21.7347 14.553L20.6869 13.5374C20.3011 13.1635 19.6756 13.1635 19.2898 13.5374L18.2419 14.553C17.8561 14.9269 17.8561 15.5332 18.2419 15.9071L19.2898 16.9227C19.6756 17.2966 20.3011 17.2966 20.6869 16.9227L21.7347 15.9071C22.1206 15.5332 22.1206 14.9269 21.7347 14.553Z" fill="#2A3644"/>
<path d="M25.1378 11.2683L24.0899 10.2527C23.7041 9.87878 23.0786 9.87878 22.6928 10.2527L21.645 11.2683C21.2592 11.6422 21.2592 12.2484 21.645 12.6224L22.6928 13.6379C23.0786 14.0119 23.7041 14.0119 24.0899 13.6379L25.1378 12.6224C25.5236 12.2485 25.5236 11.6422 25.1378 11.2683Z" fill="#169AA4"/>
<path d="M25.1375 17.854L24.0897 16.8385C23.7039 16.4645 23.0784 16.4645 22.6926 16.8385L21.6447 17.854C21.2589 18.228 21.2589 18.8342 21.6447 19.2081L22.6926 20.2237C23.0784 20.5976 23.7039 20.5976 24.0897 20.2237L25.1375 19.2081C25.5234 18.8342 25.5234 18.228 25.1375 17.854Z" fill="#169AA4"/>
<path d="M18.3542 11.2387L17.3063 10.2231C16.9205 9.84918 16.295 9.84918 15.9092 10.2231L14.8614 11.2387C14.4755 11.6126 14.4755 12.2188 14.8614 12.5928L15.9092 13.6083C16.295 13.9823 16.9205 13.9823 17.3063 13.6083L18.3542 12.5928C18.74 12.2188 18.74 11.6126 18.3542 11.2387Z" fill="#169AA4"/>
<path opacity="0.5" d="M28.5087 14.5892L27.4608 13.5737C27.075 13.1997 26.4495 13.1997 26.0637 13.5737L25.0159 14.5892C24.6301 14.9632 24.6301 15.5694 25.0159 15.9433L26.0637 16.9589C26.4495 17.3328 27.075 17.3328 27.4608 16.9589L28.5087 15.9433C28.8945 15.5694 28.8945 14.9632 28.5087 14.5892Z" fill="#169AA4"/>
<path d="M50.8982 23.7179C50.8982 24.3828 50.5003 24.7618 49.7045 24.7618C48.9087 24.7618 48.4696 24.4094 48.4696 23.7179V8.56424C48.4696 7.86607 48.8264 7.52031 49.6633 7.52031C50.5003 7.52031 50.8228 7.90596 50.7816 8.56424V10.9513C51.2737 9.86911 52.0904 8.9555 53.1256 8.32934C54.1607 7.70319 55.3664 7.39348 56.5856 7.44052C57.5049 7.44052 57.7793 7.75303 57.7793 8.52434C57.7793 9.29566 57.3471 9.56163 56.3523 9.60152C53.6081 9.68131 52.0096 10.7186 50.8639 13.1522L50.8982 23.7179Z" fill="#2A3644"/>
<path d="M65.861 9.4087C64.4967 9.38904 63.1555 9.75153 61.9986 10.4526C61.4017 10.8383 61.1273 11.1176 60.7637 11.1176C60.4751 11.0875 60.2088 10.9531 60.018 10.7411C59.8272 10.5291 59.726 10.2551 59.7346 9.97389C59.7346 9.58823 60.0502 9.20257 60.8871 8.70388C62.4442 7.78905 64.2398 7.32743 66.06 7.37403C68.5641 7.37403 70.3547 8.10545 71.3494 9.49514C72.0355 10.4194 72.3442 11.7692 72.3442 13.6576V23.7179C72.3442 24.3828 72.0286 24.7618 71.1916 24.7618C70.3547 24.7618 70.0802 24.4892 70.0802 23.9506V22.7537C69.3614 23.4625 68.4974 24.0174 67.5438 24.3827C66.5903 24.748 65.5683 24.9157 64.5438 24.8749C60.8871 24.8749 58.8564 22.9466 58.8564 20.1672C58.8564 16.663 62.1975 14.9276 69.9568 14.3491V13.7307C69.9773 10.8782 68.8454 9.4087 65.861 9.4087ZM61.484 20.0475C61.484 21.6699 62.6366 22.9399 65.223 22.9399C66.9789 22.9328 68.6682 22.2874 69.9568 21.1313V15.9582C64.0293 16.5433 61.484 17.5873 61.484 20.0143V20.0475Z" fill="#2A3644"/>
<path d="M76.2753 11.9687C76.2753 9.22917 78.7039 7.38068 82.3674 7.38068C84.0625 7.3353 85.7335 7.77719 87.1698 8.65068C87.9656 9.15603 88.2881 9.61483 88.2881 10.0404C88.2955 10.3157 88.1912 10.5828 87.9974 10.7843C87.8037 10.9858 87.536 11.1055 87.2521 11.1176C86.9365 11.1176 86.6553 10.8915 85.9418 10.4526C84.8368 9.76524 83.5501 9.40266 82.2371 9.4087C79.932 9.4087 78.6559 10.4526 78.6559 11.8423C78.6559 15.6191 88.5282 14.2294 88.5282 20.0143C88.5282 22.9466 85.9761 24.9148 82.1616 24.9148C80.3001 24.9406 78.4769 24.4012 76.9476 23.3721C76.2616 22.9466 75.9529 22.521 75.9529 22.0955C75.956 21.8175 76.0685 21.5513 76.2675 21.3511C76.4664 21.1509 76.7367 21.0318 77.0231 21.0183C77.3455 21.0183 77.62 21.2909 78.2168 21.6367C79.379 22.4376 80.7699 22.8675 82.1959 22.8668C84.5491 22.8668 86.0996 21.7896 86.0996 20.1339C86.1064 16.1178 76.2753 17.5474 76.2753 11.9687Z" fill="#2A3644"/>
<path d="M102.819 23.1394C102.819 23.4453 102.579 23.8043 102.064 24.1035C101.062 24.64 99.9359 24.9193 98.7915 24.9148C96.8843 24.9148 95.3613 24.1833 94.5723 22.7936C93.8863 21.517 93.8177 20.0541 93.8177 18.3187V9.87415H91.2312C91.0886 9.89577 90.9427 9.88503 90.8051 9.84274C90.6675 9.80046 90.5418 9.7278 90.4381 9.63048C90.3344 9.53316 90.2553 9.41383 90.2073 9.28189C90.1592 9.14995 90.1433 9.00899 90.161 8.87011C90.1433 8.73123 90.1592 8.59027 90.2073 8.45833C90.2553 8.32639 90.3344 8.20706 90.4381 8.10974C90.5418 8.01242 90.6675 7.93976 90.8051 7.89747C90.9427 7.85519 91.0886 7.84444 91.2312 7.86607H93.8177V3.32463C93.8177 2.62646 94.2156 2.2807 95.0526 2.2807C95.8895 2.2807 96.2463 2.62646 96.2463 3.32463V7.87272H101.302C101.445 7.85109 101.591 7.86184 101.729 7.90412C101.866 7.94641 101.992 8.01907 102.096 8.11639C102.199 8.21371 102.278 8.33304 102.326 8.46498C102.375 8.59692 102.39 8.73788 102.373 8.87676C102.39 9.01564 102.375 9.1566 102.326 9.28854C102.278 9.42048 102.199 9.53981 102.096 9.63713C101.992 9.73445 101.866 9.80711 101.729 9.84939C101.591 9.89167 101.445 9.90242 101.302 9.8808H96.2463V18.3253C96.2463 19.4823 96.2463 20.7922 96.7265 21.6832C96.9693 22.0786 97.3219 22.3999 97.744 22.6103C98.1662 22.8208 98.6409 22.912 99.114 22.8734C99.7895 22.8551 100.453 22.6987 101.062 22.4146C101.326 22.2442 101.622 22.1266 101.934 22.0689C102.537 22.0622 102.819 22.7537 102.819 23.1394Z" fill="#2A3644"/>
<path d="M119.373 22.0223C119.373 22.408 118.975 22.8668 118.296 23.3522C116.73 24.4312 114.845 24.9867 112.924 24.9347C107.676 24.9347 104.568 21.6101 104.568 16.1776C104.568 10.7452 107.628 7.31418 112.362 7.31418C116.862 7.31418 119.682 10.4792 119.682 14.7946C119.682 16.4569 119.167 16.6497 118.015 16.6497H107.024C107.264 20.3866 109.213 22.8535 113.034 22.8535C114.455 22.9008 115.853 22.4943 117.013 21.6965C117.651 21.2776 117.967 20.9252 118.385 20.9252C118.663 20.9521 118.92 21.0805 119.103 21.2843C119.287 21.4881 119.383 21.752 119.373 22.0223ZM107.024 14.8478H117.253C117.253 11.5232 115.463 9.21586 112.314 9.21586C109.165 9.21586 107.388 11.4168 107.024 14.8478Z" fill="#2A3644"/>
<path d="M126.234 23.7179C126.234 24.3828 125.836 24.7618 125.04 24.7618C124.244 24.7618 123.805 24.4094 123.805 23.7179V8.56422C123.805 7.94584 124.045 7.52029 125.04 7.52029C126.035 7.52029 126.11 7.90595 126.11 8.3714V10.7984C126.513 9.81093 127.215 8.96485 128.124 8.37144C129.032 7.77802 130.105 7.46507 131.201 7.47375C131.887 7.47375 132.36 7.70647 132.36 8.55758C132.36 9.40868 131.88 9.56161 130.988 9.63475C129.87 9.71455 127.681 9.75444 126.254 12.9594L126.234 23.7179Z" fill="#2A3644"/>
<path d="M148.695 8.64402C149.052 7.79957 149.333 7.52695 150.17 7.52695C151.007 7.52695 151.24 7.79957 151.24 8.19187C151.214 8.52361 151.133 8.84911 151 9.15601L144.558 23.5782C144.16 24.4626 143.838 24.8084 142.884 24.8084C141.931 24.8084 141.574 24.4626 141.217 23.5782L134.926 9.15601C134.768 8.85596 134.675 8.52795 134.652 8.19187C134.652 7.80622 134.967 7.52695 135.763 7.52695C136.559 7.52695 136.915 7.79957 137.272 8.64402L142.966 21.9093L148.695 8.64402Z" fill="#169AA4"/>
<path d="M155.809 3.32463C155.582 3.33209 155.356 3.29415 155.145 3.21316C154.934 3.13218 154.742 3.00989 154.582 2.85392C154.422 2.69795 154.296 2.51165 154.213 2.30664C154.131 2.10162 154.092 1.88229 154.101 1.66231C154.101 1.22144 154.282 0.798624 154.603 0.48688C154.925 0.175136 155.361 0 155.816 0C156.271 0 156.707 0.175136 157.029 0.48688C157.351 0.798624 157.531 1.22144 157.531 1.66231C157.54 1.88345 157.501 2.10394 157.418 2.30989C157.334 2.51584 157.208 2.70279 157.046 2.85896C156.884 3.01513 156.691 3.13713 156.478 3.21727C156.265 3.29742 156.037 3.33397 155.809 3.32463ZM157.003 23.7245C157.003 24.3895 156.605 24.7685 155.809 24.7685C155.014 24.7685 154.574 24.4161 154.574 23.7245V8.56424C154.574 7.86606 154.972 7.5203 155.809 7.5203C156.646 7.5203 157.003 7.86606 157.003 8.56424V23.7245Z" fill="#169AA4"/>
<path d="M161.016 11.9687C161.016 9.22917 163.445 7.38068 167.109 7.38068C168.804 7.3353 170.475 7.77719 171.911 8.65068C172.707 9.15603 173.029 9.61483 173.029 10.0404C173.037 10.3157 172.932 10.5828 172.739 10.7843C172.545 10.9858 172.277 11.1055 171.993 11.1176C171.678 11.1176 171.396 10.8915 170.683 10.4526C169.578 9.76524 168.291 9.40266 166.978 9.4087C164.673 9.4087 163.397 10.4526 163.397 11.8423C163.397 15.6191 173.269 14.2294 173.269 20.0143C173.269 22.9466 170.717 24.9148 166.903 24.9148C165.041 24.9406 163.218 24.4012 161.689 23.3721C161.003 22.9466 160.694 22.521 160.694 22.0955C160.697 21.8175 160.81 21.5513 161.009 21.3511C161.208 21.1509 161.478 21.0318 161.764 21.0183C162.087 21.0183 162.361 21.2909 162.958 21.6367C164.12 22.4376 165.511 22.8675 166.937 22.8668C169.29 22.8668 170.841 21.7896 170.841 20.1339C170.827 16.1178 161.016 17.5474 161.016 11.9687Z" fill="#169AA4"/>
<path d="M178.374 3.32463C178.147 3.33209 177.92 3.29415 177.709 3.21316C177.498 3.13218 177.306 3.00989 177.146 2.85392C176.986 2.69795 176.86 2.51165 176.778 2.30664C176.695 2.10162 176.657 1.88229 176.665 1.66231C176.665 1.22144 176.846 0.798624 177.168 0.48688C177.489 0.175136 177.926 0 178.38 0C178.835 0 179.272 0.175136 179.593 0.48688C179.915 0.798624 180.096 1.22144 180.096 1.66231C180.103 1.88319 180.064 2.10324 179.98 2.30874C179.896 2.51424 179.77 2.70078 179.608 2.85674C179.446 3.0127 179.253 3.13474 179.041 3.21524C178.829 3.29573 178.601 3.33297 178.374 3.32463ZM179.567 23.7245C179.567 24.3895 179.169 24.7685 178.374 24.7685C177.578 24.7685 177.139 24.4161 177.139 23.7245V8.56424C177.139 7.86606 177.537 7.5203 178.374 7.5203C179.211 7.5203 179.567 7.86606 179.567 8.56424V23.7245Z" fill="#169AA4"/>
<path d="M191.937 7.31418C197.069 7.31418 200.327 10.7585 200.327 16.1178C200.327 21.4771 197.027 24.9546 191.889 24.9546C186.75 24.9546 183.457 21.4837 183.457 16.1577C183.457 10.8316 186.805 7.31418 191.937 7.31418ZM191.937 22.9732C195.518 22.9732 197.789 20.3135 197.789 16.1444C197.789 11.9753 195.484 9.24246 191.896 9.24246C188.308 9.24246 186.051 11.9421 186.051 16.1045C186.051 20.2669 188.321 22.9865 191.937 22.9865V22.9732Z" fill="#169AA4"/>
<path d="M205.905 8.56423V10.1401C206.941 8.59747 208.93 7.40726 211.757 7.40726C213.904 7.40726 215.77 8.07218 216.847 9.56161C217.695 10.9478 218.096 12.5476 218 14.1562V23.7179C218 24.3828 217.602 24.7618 216.806 24.7618C216.01 24.7618 215.571 24.4094 215.571 23.7179V14.502C215.649 13.2685 215.33 12.0421 214.659 10.9912C213.904 9.98495 212.711 9.48404 211.078 9.48847C210.076 9.45599 209.084 9.67681 208.197 10.1292C207.31 10.5815 206.561 11.2499 206.022 12.0684V23.7179C206.022 24.3828 205.624 24.7618 204.835 24.7618C204.046 24.7618 203.6 24.4094 203.6 23.7179V8.56423C203.6 7.86606 203.957 7.52029 204.794 7.52029C205.63 7.52029 205.946 7.90595 205.905 8.56423Z" fill="#169AA4"/>
</g>
<defs>
<clipPath id="clip0_84_935">
<rect width="218" height="28" fill="white"/>
</clipPath>
</defs>
</svg>
