<svg width="40" height="32" viewBox="0 0 40 32" fill="none" xmlns="http://www.w3.org/2000/svg">
<path d="M9.49997 4C10.875 4 12 5.125 12 6.5V9.5C12 10.9375 10.875 12 9.49997 12H6.49997C5.06247 12 3.99997 10.9375 3.99997 9.5V6.5C3.99997 5.125 5.06247 4 6.49997 4H9.49997ZM9.49997 5H6.49997C5.62497 5 4.99997 5.6875 4.99997 6.5V9.5C4.99997 10.375 5.62497 11 6.49997 11H9.49997C10.3125 11 11 10.375 11 9.5V6.5C11 5.6875 10.3125 5 9.49997 5ZM12 0C14.1875 0 16 1.8125 16 4V12C16 14.25 14.1875 16 12 16H3.99997C1.74997 16 -3.05176e-05 14.25 -3.05176e-05 12V4C-3.05176e-05 1.8125 1.74997 0 3.99997 0H12ZM12 1H3.99997C2.31247 1 0.999969 2.375 0.999969 4V12C0.999969 13.6875 2.31247 15 3.99997 15H12C13.625 15 15 13.6875 15 12V4C15 2.375 13.625 1 12 1ZM28 22.5C28 21.125 29.0625 20 30.5 20H33.5C34.875 20 36 21.125 36 22.5V25.5C36 26.9375 34.875 28 33.5 28H30.5C29.0625 28 28 26.9375 28 25.5V22.5ZM29 22.5V25.5C29 26.375 29.625 27 30.5 27H33.5C34.3125 27 35 26.375 35 25.5V22.5C35 21.6875 34.3125 21 33.5 21H30.5C29.625 21 29 21.6875 29 22.5ZM36 16C38.1875 16 40 17.8125 40 20V28C40 30.25 38.1875 32 36 32H28C25.75 32 24 30.25 24 28V20C24 17.8125 25.75 16 28 16H36ZM36 17H28C26.3125 17 25 18.375 25 20V28C25 29.6875 26.3125 31 28 31H36C37.625 31 39 29.6875 39 28V20C39 18.375 37.625 17 36 17ZM11 18.5V22C11 23.6875 12.3125 25 14 25H21.5C21.75 25 22 25.25 22 25.5C22 25.8125 21.75 26 21.5 26H14C11.75 26 9.99997 24.25 9.99997 22V18.5C9.99997 18.25 10.1875 18 10.5 18C10.75 18 11 18.25 11 18.5ZM26 6C28.1875 6 30 7.8125 30 10V13.5C30 13.8125 29.75 14 29.5 14C29.1875 14 29 13.8125 29 13.5V10C29 8.375 27.625 7 26 7H18.5C18.1875 7 18 6.8125 18 6.5C18 6.25 18.1875 6 18.5 6H26Z" fill="#A0DDE6"/>
</svg>
